<?xml version="1.0" encoding="UTF-8"?>
<svg xmlns="http://www.w3.org/2000/svg" xmlns:xlink="http://www.w3.org/1999/xlink" width="32px" height="32px" viewBox="0 0 32 32" version="1.1">
<g id="surface1">
<path style=" stroke:none;fill-rule:evenodd;fill:rgb(50.980395%,70.588237%,50.980395%);fill-opacity:1;" d="M 15.4375 7.0625 C 13.816406 7.265625 12.449219 8.359375 11.921875 9.878906 C 11.738281 10.410156 11.6875 10.789062 11.6875 11.683594 L 11.6875 12.457031 L 11.480469 12.496094 C 10.890625 12.605469 10.363281 13.125 10.25 13.703125 C 10.226562 13.835938 10.21875 14.65625 10.226562 16.609375 L 10.234375 19.328125 L 10.320312 19.597656 C 10.765625 21.019531 11.703125 21.667969 13.324219 21.671875 L 14.007812 21.671875 L 14.082031 21.921875 C 14.191406 22.292969 14.195312 22.28125 13.945312 22.28125 C 13.507812 22.28125 13.464844 22.355469 13.328125 23.386719 C 13.199219 24.34375 13.210938 24.445312 13.476562 24.582031 C 13.609375 24.652344 18.382812 24.644531 18.5625 24.574219 C 18.84375 24.460938 18.851562 24.390625 18.703125 23.328125 C 18.566406 22.339844 18.53125 22.28125 18.082031 22.269531 C 17.953125 22.269531 17.84375 22.265625 17.84375 22.265625 C 17.84375 22.265625 17.882812 22.132812 17.933594 21.96875 L 18.019531 21.671875 L 18.703125 21.671875 C 19.4375 21.667969 19.585938 21.648438 20.019531 21.484375 C 20.957031 21.132812 21.652344 20.226562 21.78125 19.1875 C 21.835938 18.730469 21.824219 13.980469 21.765625 13.726562 C 21.710938 13.496094 21.527344 13.136719 21.46875 13.148438 C 21.449219 13.152344 21.441406 13.140625 21.453125 13.121094 C 21.542969 12.980469 20.765625 12.503906 20.445312 12.5 L 20.34375 12.5 L 20.34375 11.761719 C 20.34375 10.625 20.25 10.148438 19.890625 9.421875 C 19.066406 7.765625 17.300781 6.832031 15.4375 7.0625 M 16.789062 8.152344 C 18 8.46875 18.894531 9.347656 19.207031 10.519531 C 19.285156 10.804688 19.292969 10.886719 19.304688 11.648438 L 19.320312 12.46875 L 12.71875 12.46875 L 12.71875 11.753906 C 12.71875 10.796875 12.789062 10.417969 13.0625 9.875 C 13.746094 8.515625 15.347656 7.777344 16.789062 8.152344 M 20.453125 13.550781 C 20.523438 13.585938 20.621094 13.675781 20.671875 13.746094 L 20.765625 13.878906 L 20.765625 16.511719 C 20.765625 19.390625 20.773438 19.265625 20.574219 19.683594 C 20.25 20.355469 19.621094 20.699219 18.742188 20.679688 L 18.292969 20.671875 L 18.535156 19.828125 C 18.84375 18.761719 18.839844 18.816406 18.550781 18.386719 C 18.421875 18.199219 18.171875 17.800781 17.992188 17.5 C 17.71875 17.039062 17.449219 16.566406 16.414062 14.726562 C 16.203125 14.351562 15.785156 14.378906 15.566406 14.785156 C 15.121094 15.617188 13.824219 17.8125 13.425781 18.410156 C 13.1875 18.769531 13.183594 18.78125 13.355469 19.347656 C 13.632812 20.292969 13.71875 20.59375 13.71875 20.644531 C 13.71875 20.691406 13.671875 20.695312 13.226562 20.679688 C 12.511719 20.652344 12.175781 20.527344 11.78125 20.136719 C 11.683594 20.042969 11.59375 19.976562 11.578125 19.992188 C 11.566406 20.003906 11.5625 20 11.574219 19.980469 C 11.585938 19.957031 11.550781 19.875 11.5 19.792969 C 11.445312 19.707031 11.371094 19.53125 11.328125 19.398438 L 11.25 19.152344 L 11.25 13.894531 L 11.328125 13.761719 C 11.40625 13.632812 11.515625 13.550781 11.6875 13.496094 C 11.898438 13.429688 20.324219 13.480469 20.453125 13.550781 M 16.832031 16.835938 C 17.0625 17.234375 17.429688 17.863281 17.65625 18.234375 L 18.0625 18.910156 L 17.792969 19.886719 C 17.648438 20.421875 17.441406 21.167969 17.339844 21.542969 C 17.238281 21.921875 17.148438 22.242188 17.136719 22.253906 C 17.128906 22.265625 16.621094 22.277344 16.003906 22.28125 L 14.886719 22.28125 L 14.5 20.867188 C 14.289062 20.089844 14.078125 19.320312 14.03125 19.160156 L 13.945312 18.871094 L 14.253906 18.367188 C 14.550781 17.890625 15.457031 16.359375 15.582031 16.125 C 15.640625 16.015625 15.640625 16.023438 15.648438 17.261719 L 15.65625 18.507812 L 15.527344 18.621094 C 15.03125 19.046875 15.339844 19.84375 16 19.84375 C 16.667969 19.84375 16.96875 19.042969 16.464844 18.613281 L 16.34375 18.507812 L 16.34375 17.246094 C 16.34375 16.289062 16.355469 16 16.382812 16.046875 C 16.402344 16.082031 16.605469 16.433594 16.832031 16.835938 M 17.972656 23.375 C 18.003906 23.589844 18.027344 23.792969 18.03125 23.828125 C 18.03125 23.890625 18.007812 23.890625 16.015625 23.898438 C 14.90625 23.898438 14 23.894531 14 23.882812 C 14 23.871094 14.027344 23.664062 14.0625 23.421875 C 14.097656 23.183594 14.125 22.980469 14.125 22.976562 C 14.125 22.972656 14.980469 22.972656 16.023438 22.976562 L 17.917969 22.984375 L 17.972656 23.375 "/>
<path style=" stroke:none;fill-rule:evenodd;fill:rgb(98.431373%,98.431373%,97.254902%);fill-opacity:1;" d="M 0 16 L 0 32 L 32 32 L 32 0 L 0 0 L 0 16 M 16.785156 7.09375 C 18.5 7.386719 19.84375 8.660156 20.257812 10.375 C 20.308594 10.597656 20.324219 10.789062 20.339844 11.5625 L 20.359375 12.484375 L 20.46875 12.492188 C 20.96875 12.535156 21.5 12.972656 21.726562 13.527344 L 21.796875 13.703125 L 21.804688 16.414062 C 21.816406 19.65625 21.8125 19.695312 21.367188 20.382812 C 20.773438 21.304688 20.066406 21.652344 18.734375 21.683594 L 18.019531 21.703125 L 17.949219 21.953125 C 17.910156 22.089844 17.875 22.214844 17.875 22.226562 C 17.875 22.238281 17.953125 22.25 18.050781 22.25 C 18.511719 22.25 18.574219 22.347656 18.707031 23.277344 C 18.863281 24.339844 18.855469 24.421875 18.605469 24.570312 C 18.460938 24.65625 13.578125 24.65625 13.433594 24.574219 C 13.195312 24.433594 13.1875 24.347656 13.3125 23.386719 C 13.453125 22.339844 13.503906 22.253906 14.023438 22.25 C 14.097656 22.25 14.15625 22.246094 14.15625 22.242188 C 14.15625 22.238281 14.121094 22.113281 14.082031 21.96875 L 14.007812 21.703125 L 13.261719 21.683594 C 11.949219 21.648438 11.171875 21.253906 10.636719 20.355469 C 10.210938 19.628906 10.214844 19.695312 10.226562 16.386719 L 10.234375 13.605469 L 10.355469 13.363281 C 10.59375 12.875 11.152344 12.46875 11.582031 12.46875 L 11.683594 12.46875 L 11.695312 11.523438 C 11.710938 10.375 11.757812 10.125 12.105469 9.421875 C 12.960938 7.6875 14.835938 6.753906 16.785156 7.09375 M 15.589844 8.09375 C 14.167969 8.320312 13.167969 9.214844 12.824219 10.5625 C 12.753906 10.832031 12.746094 10.929688 12.738281 11.664062 L 12.730469 12.46875 L 19.296875 12.46875 L 19.292969 11.710938 C 19.289062 10.742188 19.226562 10.417969 18.953125 9.875 C 18.347656 8.671875 16.871094 7.890625 15.589844 8.09375 M 11.578125 13.542969 C 11.238281 13.691406 11.246094 13.628906 11.257812 16.625 L 11.265625 19.234375 L 11.347656 19.441406 C 11.582031 20.042969 12.03125 20.457031 12.613281 20.605469 C 12.90625 20.683594 13.730469 20.679688 13.707031 20.601562 C 13.695312 20.570312 13.613281 20.28125 13.519531 19.953125 C 13.425781 19.625 13.320312 19.269531 13.285156 19.15625 C 13.175781 18.8125 13.1875 18.753906 13.457031 18.347656 C 13.773438 17.863281 14.675781 16.351562 15.226562 15.375 C 15.71875 14.5 15.753906 14.464844 16.019531 14.464844 C 16.285156 14.464844 16.292969 14.472656 16.960938 15.671875 C 17.617188 16.855469 18.15625 17.765625 18.484375 18.265625 C 18.824219 18.777344 18.835938 18.816406 18.75 19.109375 C 18.632812 19.507812 18.3125 20.660156 18.3125 20.675781 C 18.3125 20.730469 19.304688 20.664062 19.5 20.597656 C 20.089844 20.390625 20.550781 19.90625 20.703125 19.328125 C 20.769531 19.0625 20.773438 13.949219 20.707031 13.820312 C 20.648438 13.707031 20.503906 13.574219 20.394531 13.53125 C 20.253906 13.480469 11.699219 13.488281 11.578125 13.542969 M 16.359375 17.273438 L 16.359375 18.515625 L 16.449219 18.585938 C 16.933594 18.953125 16.746094 19.726562 16.148438 19.839844 C 15.433594 19.972656 14.972656 19.144531 15.484375 18.648438 L 15.625 18.515625 L 15.625 16.078125 L 15.550781 16.203125 C 14.894531 17.332031 14.652344 17.738281 14.335938 18.246094 L 13.960938 18.855469 L 14.429688 20.558594 L 14.894531 22.265625 L 15.089844 22.265625 C 15.195312 22.265625 15.699219 22.261719 16.210938 22.257812 L 17.140625 22.25 L 17.382812 21.351562 C 17.515625 20.855469 17.722656 20.105469 17.839844 19.679688 L 18.054688 18.90625 L 17.816406 18.523438 C 17.5 18.003906 16.703125 16.640625 16.519531 16.304688 C 16.4375 16.15625 16.367188 16.03125 16.363281 16.03125 C 16.363281 16.03125 16.359375 16.589844 16.359375 17.273438 M 16.007812 22.992188 C 14.535156 23 14.125 23.007812 14.125 23.039062 C 14.125 23.0625 14.101562 23.226562 14.078125 23.40625 C 14.054688 23.585938 14.03125 23.765625 14.03125 23.804688 L 14.03125 23.875 L 18.039062 23.875 L 18.019531 23.773438 C 18.007812 23.71875 17.980469 23.519531 17.953125 23.328125 C 17.925781 23.140625 17.902344 22.988281 17.898438 22.984375 C 17.894531 22.984375 17.042969 22.988281 16.007812 22.992188 "/>
<path style=" stroke:none;fill-rule:evenodd;fill:rgb(71.764708%,81.960785%,70.980394%);fill-opacity:1;" d="M 19.09375 8.296875 C 19.152344 8.355469 19.207031 8.40625 19.214844 8.40625 C 19.222656 8.40625 19.183594 8.355469 19.125 8.296875 C 19.066406 8.238281 19.011719 8.1875 19.003906 8.1875 C 18.996094 8.1875 19.035156 8.238281 19.09375 8.296875 M 18.3125 9.007812 C 18.386719 9.089844 18.453125 9.15625 18.460938 9.15625 C 18.484375 9.15625 18.457031 9.128906 18.320312 9 L 18.171875 8.859375 L 18.3125 9.007812 M 12.730469 11.234375 C 12.730469 11.355469 12.734375 11.398438 12.742188 11.335938 C 12.75 11.269531 12.75 11.171875 12.742188 11.117188 C 12.734375 11.0625 12.730469 11.113281 12.730469 11.234375 M 19.289062 11.171875 C 19.289062 11.242188 19.296875 11.265625 19.304688 11.226562 C 19.3125 11.1875 19.3125 11.132812 19.300781 11.101562 C 19.292969 11.070312 19.289062 11.101562 19.289062 11.171875 M 12.726562 12.03125 C 12.726562 12.109375 12.734375 12.140625 12.742188 12.101562 C 12.75 12.0625 12.75 12 12.742188 11.960938 C 12.734375 11.921875 12.726562 11.953125 12.726562 12.03125 M 19.289062 12 C 19.289062 12.058594 19.296875 12.085938 19.304688 12.054688 C 19.3125 12.023438 19.3125 11.976562 19.304688 11.945312 C 19.296875 11.914062 19.289062 11.941406 19.289062 12 M 19.289062 12.3125 C 19.289062 12.371094 19.296875 12.398438 19.304688 12.367188 C 19.3125 12.335938 19.3125 12.289062 19.304688 12.257812 C 19.296875 12.226562 19.289062 12.253906 19.289062 12.3125 M 10.65625 12.929688 L 10.546875 13.046875 L 10.664062 12.9375 C 10.726562 12.878906 10.78125 12.828125 10.78125 12.820312 C 10.78125 12.796875 10.753906 12.820312 10.65625 12.929688 M 21.25 12.855469 C 21.25 12.859375 21.296875 12.90625 21.351562 12.957031 L 21.453125 13.046875 L 21.363281 12.945312 C 21.277344 12.851562 21.25 12.828125 21.25 12.855469 M 20.765625 16.46875 C 20.765625 17.835938 20.769531 18.394531 20.773438 17.710938 C 20.777344 17.027344 20.777344 15.910156 20.773438 15.226562 C 20.769531 14.542969 20.765625 15.101562 20.765625 16.46875 M 16.359375 17.296875 C 16.359375 17.96875 16.363281 18.238281 16.367188 17.894531 C 16.371094 17.554688 16.371094 17.007812 16.367188 16.675781 C 16.363281 16.347656 16.359375 16.625 16.359375 17.296875 M 13.117188 20.679688 C 13.207031 20.6875 13.355469 20.6875 13.445312 20.679688 C 13.535156 20.671875 13.460938 20.667969 13.28125 20.667969 C 13.101562 20.667969 13.027344 20.671875 13.117188 20.679688 M 13.710938 21.679688 C 13.765625 21.6875 13.859375 21.6875 13.914062 21.679688 C 13.96875 21.671875 13.925781 21.667969 13.8125 21.667969 C 13.699219 21.667969 13.65625 21.671875 13.710938 21.679688 M 18.019531 21.679688 C 18.011719 21.695312 18.054688 21.699219 18.121094 21.695312 C 18.292969 21.675781 18.3125 21.660156 18.164062 21.660156 C 18.09375 21.65625 18.027344 21.667969 18.019531 21.679688 M 15.367188 22.273438 C 15.425781 22.28125 15.507812 22.28125 15.554688 22.273438 C 15.601562 22.265625 15.554688 22.257812 15.453125 22.257812 C 15.351562 22.261719 15.3125 22.265625 15.367188 22.273438 M 15.054688 22.992188 C 15.574219 22.996094 16.425781 22.996094 16.945312 22.992188 C 17.464844 22.988281 17.039062 22.984375 16 22.984375 C 14.960938 22.984375 14.535156 22.988281 15.054688 22.992188 M 14.027344 23.882812 C 14.042969 23.898438 14.089844 23.90625 14.128906 23.898438 C 14.191406 23.890625 14.1875 23.886719 14.101562 23.871094 C 14.039062 23.859375 14.007812 23.867188 14.027344 23.882812 M 14.304688 23.898438 C 14.363281 23.90625 14.445312 23.90625 14.492188 23.898438 C 14.539062 23.890625 14.492188 23.882812 14.390625 23.882812 C 14.289062 23.886719 14.25 23.890625 14.304688 23.898438 "/>
<path style=" stroke:none;fill-rule:evenodd;fill:rgb(61.176473%,76.47059%,61.176473%);fill-opacity:1;" d="M 11.804688 13.492188 C 11.84375 13.5 11.898438 13.5 11.929688 13.492188 C 11.960938 13.480469 11.929688 13.476562 11.859375 13.476562 C 11.789062 13.476562 11.765625 13.484375 11.804688 13.492188 M 12.070312 13.492188 C 12.117188 13.5 12.1875 13.5 12.226562 13.492188 C 12.265625 13.484375 12.226562 13.476562 12.140625 13.476562 C 12.054688 13.476562 12.023438 13.484375 12.070312 13.492188 M 14.726562 13.492188 C 14.757812 13.5 14.804688 13.5 14.835938 13.492188 C 14.867188 13.480469 14.839844 13.476562 14.78125 13.476562 C 14.722656 13.476562 14.695312 13.480469 14.726562 13.492188 M 14.976562 13.492188 C 15.023438 13.5 15.101562 13.5 15.148438 13.492188 C 15.195312 13.484375 15.15625 13.476562 15.0625 13.476562 C 14.96875 13.476562 14.929688 13.484375 14.976562 13.492188 M 15.320312 13.492188 C 15.367188 13.5 15.4375 13.5 15.476562 13.492188 C 15.515625 13.484375 15.476562 13.476562 15.390625 13.476562 C 15.304688 13.476562 15.273438 13.484375 15.320312 13.492188 M 15.648438 13.492188 C 15.707031 13.5 15.789062 13.5 15.835938 13.492188 C 15.882812 13.484375 15.835938 13.476562 15.734375 13.476562 C 15.632812 13.480469 15.59375 13.484375 15.648438 13.492188 M 15.976562 13.492188 C 16.007812 13.5 16.054688 13.5 16.085938 13.492188 C 16.117188 13.480469 16.089844 13.476562 16.03125 13.476562 C 15.972656 13.476562 15.945312 13.480469 15.976562 13.492188 M 16.257812 13.492188 C 16.320312 13.5 16.429688 13.5 16.492188 13.492188 C 16.554688 13.484375 16.503906 13.480469 16.375 13.480469 C 16.246094 13.480469 16.195312 13.484375 16.257812 13.492188 M 17.460938 13.492188 C 17.929688 13.496094 18.695312 13.496094 19.164062 13.492188 C 19.632812 13.488281 19.25 13.484375 18.3125 13.484375 C 17.375 13.484375 16.992188 13.488281 17.460938 13.492188 M 18.492188 21.679688 C 18.53125 21.6875 18.585938 21.683594 18.617188 21.679688 C 18.648438 21.667969 18.617188 21.664062 18.546875 21.664062 C 18.476562 21.664062 18.453125 21.671875 18.492188 21.679688 M 13.976562 22.273438 C 14.007812 22.28125 14.054688 22.28125 14.085938 22.273438 C 14.117188 22.265625 14.089844 22.257812 14.03125 22.257812 C 13.972656 22.257812 13.945312 22.265625 13.976562 22.273438 M 16.054688 22.273438 C 16.09375 22.28125 16.148438 22.277344 16.179688 22.269531 C 16.210938 22.265625 16.179688 22.257812 16.109375 22.257812 C 16.039062 22.257812 16.015625 22.265625 16.054688 22.273438 M 16.367188 22.273438 C 16.441406 22.28125 16.554688 22.28125 16.617188 22.273438 C 16.683594 22.265625 16.621094 22.261719 16.484375 22.261719 C 16.347656 22.261719 16.292969 22.265625 16.367188 22.273438 M 16.835938 22.273438 C 16.894531 22.28125 16.976562 22.28125 17.023438 22.273438 C 17.070312 22.265625 17.023438 22.257812 16.921875 22.257812 C 16.820312 22.261719 16.78125 22.265625 16.835938 22.273438 M 14.789062 23.898438 C 14.820312 23.90625 14.867188 23.90625 14.898438 23.898438 C 14.929688 23.890625 14.902344 23.882812 14.84375 23.882812 C 14.785156 23.882812 14.757812 23.890625 14.789062 23.898438 M 16.367188 23.898438 C 16.425781 23.90625 16.507812 23.90625 16.554688 23.898438 C 16.601562 23.890625 16.554688 23.882812 16.453125 23.882812 C 16.351562 23.886719 16.3125 23.890625 16.367188 23.898438 "/>
<path style=" stroke:none;fill-rule:evenodd;fill:rgb(64.313728%,76.862746%,61.176473%);fill-opacity:1;" d="M 13.523438 13.492188 C 13.5625 13.5 13.625 13.5 13.664062 13.492188 C 13.703125 13.484375 13.671875 13.476562 13.59375 13.476562 C 13.515625 13.476562 13.484375 13.484375 13.523438 13.492188 M 15.636719 16.84375 C 15.636719 16.988281 15.640625 17.050781 15.648438 16.976562 C 15.65625 16.902344 15.65625 16.785156 15.648438 16.710938 C 15.640625 16.636719 15.636719 16.699219 15.636719 16.84375 M 15.636719 17.453125 C 15.636719 17.640625 15.640625 17.714844 15.648438 17.617188 C 15.65625 17.515625 15.65625 17.363281 15.648438 17.273438 C 15.640625 17.183594 15.636719 17.265625 15.636719 17.453125 M 15.636719 18.171875 C 15.636719 18.34375 15.640625 18.410156 15.648438 18.320312 C 15.65625 18.226562 15.65625 18.085938 15.648438 18.007812 C 15.640625 17.925781 15.636719 18 15.636719 18.171875 "/>
</g>
</svg>
