<svg id="svg" version="1.1" xmlns="http://www.w3.org/2000/svg" xmlns:xlink="http://www.w3.org/1999/xlink" width="400" height="400" viewBox="0, 0, 400,400"><g id="svgg"><path id="path0" d="M192.969 88.303 C 172.726 90.838,155.633 104.516,149.032 123.463 C 146.705 130.144,146.094 134.842,146.094 146.065 L 146.094 155.724 143.484 156.205 C 136.151 157.556,129.517 164.077,128.137 171.289 C 127.815 172.973,127.724 183.193,127.813 207.617 L 127.937 241.602 128.993 244.976 C 134.552 262.737,146.309 270.846,166.558 270.883 L 175.108 270.898 176.021 274.023 C 177.372 278.644,177.421 278.515,174.316 278.517 C 168.843 278.520,168.333 279.433,166.600 292.314 C 164.986 304.308,165.140 305.562,168.437 307.267 C 170.136 308.145,229.808 308.071,232.016 307.187 C 235.539 305.778,235.643 304.864,233.788 291.602 C 232.059 279.235,231.644 278.526,226.046 278.392 C 224.398 278.353,223.053 278.320,223.057 278.320 C 223.061 278.320,223.553 276.650,224.150 274.609 L 225.236 270.898 233.809 270.876 C 242.993 270.851,244.804 270.596,250.231 268.558 C 261.977 264.148,270.639 252.855,272.247 239.854 C 272.955 234.129,272.793 174.778,272.060 171.561 C 271.407 168.693,269.101 164.195,268.371 164.365 C 268.118 164.424,268.032 164.276,268.180 164.037 C 269.280 162.257,259.594 156.284,255.566 156.258 L 254.297 156.250 254.297 147.023 C 254.297 132.803,253.141 126.839,248.628 117.773 C 238.327 97.082,216.243 85.389,192.969 88.303 M209.864 101.916 C 224.987 105.882,236.205 116.852,240.112 131.495 C 241.070 135.083,241.153 136.066,241.312 145.605 L 241.482 155.859 200.233 155.859 L 158.984 155.859 158.984 146.926 C 158.984 134.984,159.850 130.246,163.275 123.438 C 171.822 106.449,191.858 97.194,209.864 101.916 M255.664 169.371 C 256.523 169.820,257.754 170.933,258.398 171.846 L 259.570 173.505 259.570 206.381 C 259.570 242.389,259.665 240.821,257.165 246.041 C 253.147 254.428,245.262 258.719,234.257 258.507 L 228.669 258.398 231.697 247.852 C 235.527 234.516,235.520 235.214,231.882 229.832 C 230.296 227.485,227.163 222.493,224.921 218.739 C 221.499 213.011,218.134 207.098,205.182 184.058 C 202.555 179.385,197.304 179.754,194.592 184.802 C 189.007 195.195,172.796 222.638,167.819 230.124 C 164.829 234.621,164.817 234.768,166.926 241.866 C 170.423 253.638,171.484 257.404,171.484 258.046 C 171.484 258.635,170.900 258.676,165.332 258.482 C 156.414 258.171,152.189 256.593,147.244 251.725 C 146.050 250.550,144.923 249.725,144.740 249.892 C 144.556 250.059,144.525 249.987,144.671 249.732 C 144.817 249.478,144.400 248.423,143.744 247.389 C 143.088 246.354,142.117 244.136,141.588 242.460 L 140.625 239.413 140.625 206.557 L 140.625 173.701 141.617 172.009 C 142.561 170.398,143.932 169.390,146.091 168.717 C 148.747 167.891,254.032 168.518,255.664 169.371 M210.407 210.425 C 213.265 215.407,217.894 223.290,220.693 227.942 L 225.782 236.401 222.431 248.572 C 220.589 255.265,218.031 264.596,216.748 269.306 C 215.466 274.016,214.332 278.005,214.230 278.170 C 214.128 278.336,207.747 278.482,200.052 278.496 L 186.060 278.520 181.263 260.842 C 178.625 251.119,175.980 241.522,175.386 239.515 L 174.305 235.866 178.187 229.588 C 181.877 223.618,193.209 204.471,194.773 201.563 C 195.504 200.202,195.508 200.270,195.610 215.779 L 195.712 231.363 194.092 232.749 C 187.875 238.071,191.726 248.030,200.000 248.030 C 208.326 248.030,212.110 238.058,205.825 232.678 L 204.297 231.370 204.309 215.588 C 204.318 203.592,204.427 199.992,204.765 200.586 C 205.009 201.016,207.548 205.443,210.407 210.425 M224.672 292.188 C 225.049 294.873,225.365 297.422,225.374 297.852 C 225.390 298.624,225.110 298.634,200.195 298.711 C 186.338 298.754,175.003 298.666,175.006 298.515 C 175.009 298.365,175.361 295.786,175.787 292.785 C 176.214 289.783,176.563 287.277,176.563 287.215 C 176.563 287.154,187.233 287.149,200.275 287.204 L 223.987 287.305 224.672 292.188 " stroke="none" fill="#82b482" fill-rule="evenodd"></path><path id="path1" d="M0.000 200.000 L 0.000 400.000 200.000 400.000 L 400.000 400.000 400.000 200.000 L 400.000 0.000 200.000 0.000 L 0.000 0.000 0.000 200.000 M209.824 88.656 C 231.274 92.358,248.071 108.243,253.210 129.688 C 253.877 132.472,254.045 134.868,254.249 144.531 L 254.492 156.055 255.859 156.165 C 262.120 156.672,268.757 162.139,271.581 169.115 L 272.461 171.289 272.567 205.174 C 272.694 245.722,272.641 246.200,267.102 254.773 C 259.661 266.290,250.853 270.651,234.193 271.066 L 225.221 271.289 224.341 274.414 C 223.857 276.133,223.456 277.671,223.449 277.832 C 223.443 277.993,224.437 278.125,225.658 278.125 C 231.382 278.125,232.173 279.364,233.860 290.981 C 235.791 304.269,235.710 305.272,232.564 307.115 C 230.738 308.185,169.721 308.225,167.904 307.158 C 164.939 305.417,164.832 304.350,166.422 292.357 C 168.163 279.226,168.821 278.171,175.293 278.134 C 176.206 278.129,176.950 278.081,176.947 278.027 C 176.944 277.974,176.531 276.436,176.029 274.609 L 175.117 271.289 165.781 271.048 C 149.369 270.624,139.630 265.695,132.980 254.448 C 127.613 245.369,127.698 246.189,127.824 204.850 L 127.930 170.076 129.428 167.045 C 132.438 160.955,139.419 155.859,144.753 155.859 L 146.025 155.859 146.186 144.043 C 146.382 129.670,146.990 126.563,151.326 117.773 C 162.022 96.094,185.426 84.445,209.824 88.656 M194.876 101.172 C 177.102 104.004,164.589 115.162,160.292 132.011 C 159.424 135.416,159.332 136.623,159.238 145.801 L 159.135 155.859 200.173 155.859 L 241.211 155.859 241.161 146.387 C 241.098 134.292,240.347 130.236,236.913 123.424 C 229.331 108.386,210.884 98.621,194.876 101.172 M144.707 169.299 C 140.479 171.141,140.562 170.338,140.700 207.813 L 140.820 240.430 141.828 243.015 C 144.751 250.519,150.391 255.705,157.674 257.584 C 161.324 258.526,171.621 258.477,171.328 257.520 C 171.213 257.144,170.159 253.496,168.986 249.414 C 167.812 245.332,166.491 240.850,166.049 239.453 C 164.684 235.143,164.840 234.404,168.191 229.322 C 172.160 223.302,183.423 204.408,190.323 192.195 C 196.501 181.261,196.907 180.794,200.248 180.794 C 203.550 180.794,203.647 180.919,211.991 195.898 C 220.221 210.675,226.934 222.092,231.055 228.320 C 235.283 234.710,235.438 235.202,234.369 238.867 C 232.918 243.840,228.906 258.229,228.906 258.460 C 228.906 259.138,241.308 258.294,243.750 257.450 C 251.127 254.899,256.896 248.807,258.778 241.581 C 259.639 238.276,259.681 174.376,258.824 172.735 C 258.084 171.318,256.302 169.674,254.955 169.165 C 253.173 168.492,146.262 168.622,144.707 169.299 M204.492 215.918 L 204.492 231.445 205.614 232.303 C 211.654 236.923,209.329 246.594,201.842 247.992 C 192.913 249.661,187.148 239.318,193.556 233.129 L 195.300 231.445 195.302 216.211 L 195.305 200.977 194.392 202.539 C 186.161 216.626,183.139 221.714,179.208 228.099 L 174.535 235.691 180.366 257.006 L 186.197 278.320 188.606 278.307 C 189.931 278.300,196.245 278.254,202.637 278.205 L 214.258 278.115 217.284 266.890 C 218.948 260.716,221.514 251.318,222.986 246.007 L 225.662 236.350 222.727 231.554 C 218.731 225.025,208.766 208.003,206.484 203.809 C 205.461 201.929,204.595 200.391,204.558 200.390 C 204.522 200.390,204.492 207.378,204.492 215.918 M200.098 287.405 C 181.671 287.484,176.560 287.611,176.550 287.991 C 176.543 288.258,176.285 290.322,175.977 292.578 C 175.668 294.834,175.410 297.075,175.403 297.559 L 175.391 298.438 200.434 298.438 L 225.478 298.438 225.241 297.168 C 225.111 296.470,224.736 293.975,224.407 291.624 C 224.078 289.273,223.769 287.340,223.721 287.327 C 223.672 287.315,213.042 287.350,200.098 287.405 " stroke="none" fill="#fbfbf8" fill-rule="evenodd"></path><path id="path2" d="M238.672 103.711 C 239.401 104.463,240.085 105.078,240.192 105.078 C 240.300 105.078,239.791 104.463,239.063 103.711 C 238.334 102.959,237.649 102.344,237.542 102.344 C 237.435 102.344,237.943 102.959,238.672 103.711 M228.890 112.598 C 229.848 113.618,230.683 114.453,230.745 114.453 C 231.039 114.453,230.729 114.102,229.004 112.484 L 227.148 110.742 228.890 112.598 M159.113 140.430 C 159.114 141.934,159.185 142.501,159.269 141.691 C 159.354 140.880,159.353 139.650,159.266 138.956 C 159.180 138.263,159.111 138.926,159.113 140.430 M241.114 139.648 C 241.118 140.508,241.198 140.813,241.292 140.327 C 241.385 139.842,241.382 139.138,241.284 138.765 C 241.186 138.392,241.110 138.789,241.114 139.648 M159.091 150.391 C 159.091 151.357,159.167 151.753,159.260 151.270 C 159.353 150.786,159.353 149.995,159.260 149.512 C 159.167 149.028,159.091 149.424,159.091 150.391 M241.106 150.000 C 241.106 150.752,241.187 151.060,241.285 150.684 C 241.383 150.308,241.383 149.692,241.285 149.316 C 241.187 148.940,241.106 149.248,241.106 150.000 M241.106 153.906 C 241.106 154.658,241.187 154.966,241.285 154.590 C 241.383 154.214,241.383 153.599,241.285 153.223 C 241.187 152.847,241.106 153.154,241.106 153.906 M133.182 161.621 L 131.836 163.086 133.301 161.740 C 134.106 160.999,134.766 160.340,134.766 160.275 C 134.766 159.977,134.435 160.258,133.182 161.621 M265.625 160.669 C 265.625 160.736,266.196 161.308,266.895 161.939 L 268.164 163.086 267.017 161.816 C 265.947 160.633,265.625 160.367,265.625 160.669 M259.561 205.859 C 259.561 222.939,259.609 229.927,259.668 221.387 C 259.727 212.847,259.727 198.872,259.668 190.332 C 259.609 181.792,259.561 188.779,259.561 205.859 M204.474 216.211 C 204.475 224.590,204.526 227.962,204.589 223.705 C 204.653 219.447,204.652 212.592,204.589 208.470 C 204.526 204.349,204.474 207.832,204.474 216.211 M163.965 258.491 C 165.093 258.570,166.938 258.570,168.066 258.491 C 169.194 258.412,168.271 258.348,166.016 258.348 C 163.760 258.348,162.837 258.412,163.965 258.491 M171.387 270.986 C 172.085 271.072,173.228 271.072,173.926 270.986 C 174.624 270.899,174.053 270.828,172.656 270.828 C 171.260 270.828,170.688 270.899,171.387 270.986 M225.246 271.012 C 225.141 271.182,225.702 271.257,226.492 271.179 C 228.654 270.966,228.911 270.769,227.074 270.734 C 226.173 270.717,225.351 270.842,225.246 271.012 M192.097 278.408 C 192.799 278.495,193.854 278.493,194.441 278.404 C 195.028 278.315,194.453 278.244,193.164 278.246 C 191.875 278.248,191.395 278.321,192.097 278.408 M188.184 287.402 C 194.683 287.462,205.317 287.462,211.816 287.402 C 218.315 287.342,212.998 287.293,200.000 287.293 C 187.002 287.293,181.685 287.342,188.184 287.402 M175.333 298.536 C 175.530 298.733,176.107 298.829,176.615 298.749 C 177.397 298.626,177.342 298.571,176.257 298.391 C 175.481 298.262,175.117 298.320,175.333 298.536 M178.816 298.721 C 179.518 298.808,180.572 298.806,181.159 298.717 C 181.746 298.627,181.172 298.556,179.883 298.559 C 178.594 298.561,178.113 298.634,178.816 298.721 " stroke="none" fill="#b7d1b5" fill-rule="evenodd"></path><path id="path3" d="M147.563 168.636 C 148.049 168.729,148.752 168.726,149.126 168.628 C 149.499 168.530,149.102 168.454,148.242 168.458 C 147.383 168.462,147.077 168.542,147.563 168.636 M150.884 168.640 C 151.478 168.729,152.357 168.727,152.837 168.634 C 153.318 168.542,152.832 168.468,151.758 168.471 C 150.684 168.474,150.291 168.550,150.884 168.640 M184.082 168.629 C 184.458 168.727,185.073 168.727,185.449 168.629 C 185.825 168.530,185.518 168.450,184.766 168.450 C 184.014 168.450,183.706 168.530,184.082 168.629 M187.207 168.639 C 187.798 168.729,188.765 168.729,189.355 168.639 C 189.946 168.550,189.463 168.476,188.281 168.476 C 187.100 168.476,186.616 168.550,187.207 168.639 M191.509 168.640 C 192.103 168.729,192.982 168.727,193.462 168.634 C 193.943 168.542,193.457 168.468,192.383 168.471 C 191.309 168.474,190.916 168.550,191.509 168.640 M195.612 168.642 C 196.315 168.729,197.369 168.728,197.956 168.638 C 198.543 168.549,197.969 168.478,196.680 168.480 C 195.391 168.483,194.910 168.556,195.612 168.642 M199.707 168.629 C 200.083 168.727,200.698 168.727,201.074 168.629 C 201.450 168.530,201.143 168.450,200.391 168.450 C 199.639 168.450,199.331 168.530,199.707 168.629 M203.223 168.644 C 204.028 168.728,205.347 168.728,206.152 168.644 C 206.958 168.560,206.299 168.491,204.688 168.491 C 203.076 168.491,202.417 168.560,203.223 168.644 M218.262 168.652 C 224.116 168.713,233.696 168.713,239.551 168.652 C 245.405 168.591,240.615 168.542,228.906 168.542 C 217.197 168.542,212.407 168.591,218.262 168.652 M231.157 270.979 C 231.643 271.073,232.346 271.069,232.719 270.972 C 233.093 270.874,232.695 270.797,231.836 270.802 C 230.977 270.806,230.671 270.886,231.157 270.979 M174.707 278.394 C 175.083 278.493,175.698 278.493,176.074 278.394 C 176.450 278.296,176.143 278.216,175.391 278.216 C 174.639 278.216,174.331 278.296,174.707 278.394 M200.688 278.401 C 201.174 278.495,201.877 278.491,202.251 278.393 C 202.624 278.296,202.227 278.219,201.367 278.224 C 200.508 278.228,200.202 278.308,200.688 278.401 M204.600 278.412 C 205.519 278.494,206.925 278.493,207.725 278.409 C 208.525 278.325,207.773 278.257,206.055 278.259 C 204.336 278.260,203.681 278.329,204.600 278.412 M210.456 278.408 C 211.158 278.495,212.213 278.493,212.800 278.404 C 213.387 278.315,212.812 278.244,211.523 278.246 C 210.234 278.248,209.754 278.321,210.456 278.408 M184.863 298.707 C 185.239 298.805,185.854 298.805,186.230 298.707 C 186.606 298.609,186.299 298.528,185.547 298.528 C 184.795 298.528,184.487 298.609,184.863 298.707 M204.597 298.721 C 205.299 298.808,206.354 298.806,206.941 298.717 C 207.528 298.627,206.953 298.556,205.664 298.559 C 204.375 298.561,203.895 298.634,204.597 298.721 " stroke="none" fill="#9cc39c" fill-rule="evenodd"></path><path id="path4" d="M169.043 168.635 C 169.526 168.728,170.317 168.728,170.801 168.635 C 171.284 168.542,170.889 168.466,169.922 168.466 C 168.955 168.466,168.560 168.542,169.043 168.635 M195.449 210.547 C 195.449 212.373,195.516 213.120,195.599 212.207 C 195.681 211.294,195.681 209.800,195.599 208.887 C 195.516 207.974,195.449 208.721,195.449 210.547 M195.459 218.164 C 195.460 220.527,195.524 221.444,195.602 220.201 C 195.679 218.957,195.679 217.024,195.600 215.904 C 195.521 214.784,195.458 215.801,195.459 218.164 M195.455 227.148 C 195.456 229.297,195.522 230.126,195.601 228.991 C 195.680 227.856,195.679 226.098,195.599 225.085 C 195.519 224.071,195.454 225.000,195.455 227.148 " stroke="none" fill="#a4c49c" fill-rule="evenodd"></path></g></svg>